<svg width="19" height="21" viewBox="0 0 19 21" fill="none" xmlns="http://www.w3.org/2000/svg">
<path d="M3.828 6.65264L6.364 9.18764L4.95 10.6026L0 5.65264L4.95 0.702637L6.364 2.11764L3.828 4.65264H11C13.1217 4.65264 15.1566 5.49549 16.6569 6.99578C18.1571 8.49607 19 10.5309 19 12.6526C19 14.7744 18.1571 16.8092 16.6569 18.3095C15.1566 19.8098 13.1217 20.6526 11 20.6526H2V18.6526H11C12.5913 18.6526 14.1174 18.0205 15.2426 16.8953C16.3679 15.7701 17 14.2439 17 12.6526C17 11.0613 16.3679 9.53521 15.2426 8.41C14.1174 7.28478 12.5913 6.65264 11 6.65264H3.828Z" fill="#1B1B1B"/>
</svg>
