<svg width="18" height="20" viewBox="0 0 18 20" fill="none" xmlns="http://www.w3.org/2000/svg">
<path d="M15 7L14.16 15.398C14.033 16.671 13.97 17.307 13.68 17.788C13.4257 18.2114 13.0516 18.55 12.605 18.761C12.098 19 11.46 19 10.18 19H7.82C6.541 19 5.902 19 5.395 18.76C4.94805 18.5491 4.57361 18.2106 4.319 17.787C4.031 17.307 3.967 16.671 3.839 15.398L3 7M10.5 13.5V8.5M7.5 13.5V8.5M1.5 4.5H6.115M6.115 4.5L6.501 1.828C6.613 1.342 7.017 1 7.481 1H10.519C10.983 1 11.386 1.342 11.499 1.828L11.885 4.5M6.115 4.5H11.885M11.885 4.5H16.5" stroke="#B40303" stroke-width="1.5" stroke-linecap="round" stroke-linejoin="round"/>
</svg>
