<svg width="56" height="55" viewBox="0 0 56 55" fill="none" xmlns="http://www.w3.org/2000/svg">
<circle cx="28" cy="27.5" r="27" stroke="#1B1B1B"/>
<path fill-rule="evenodd" clip-rule="evenodd" d="M38.4405 20.2238L28.458 28.3708C28.1744 28.6024 27.8176 28.7292 27.4492 28.7292C27.0808 28.7292 26.724 28.6024 26.4404 28.3708L16.4627 20.2238C16.4091 20.3827 16.3819 20.5489 16.382 20.7163V33.1829C16.382 33.5962 16.5486 33.9926 16.8452 34.2848C17.1417 34.5771 17.5439 34.7413 17.9633 34.7413H36.9383C37.3577 34.7413 37.7599 34.5771 38.0564 34.2848C38.3529 33.9926 38.5195 33.5962 38.5195 33.1829V20.7163C38.5202 20.549 38.4935 20.3827 38.4405 20.2238ZM17.9633 17.5996H36.9383C37.777 17.5996 38.5814 17.928 39.1745 18.5125C39.7676 19.0969 40.1008 19.8897 40.1008 20.7163V33.1829C40.1008 34.0095 39.7676 34.8023 39.1745 35.3868C38.5814 35.9712 37.777 36.2996 36.9383 36.2996H17.9633C17.1245 36.2996 16.3201 35.9712 15.7271 35.3868C15.134 34.8023 14.8008 34.0095 14.8008 33.1829V20.7163C14.8008 19.8897 15.134 19.0969 15.7271 18.5125C16.3201 17.928 17.1245 17.5996 17.9633 17.5996ZM17.6312 19.1579L26.4483 26.331C26.7307 26.5608 27.0853 26.6869 27.4515 26.6878C27.8178 26.6886 28.173 26.5642 28.4565 26.3356L37.3621 19.1579H17.6312Z" fill="#1B1B1B"/>
</svg>
