<svg width="50" height="50" viewBox="0 0 50 50" fill="none" xmlns="http://www.w3.org/2000/svg">
<path d="M25.0016 0C11.2168 0 0 11.2137 0 25C0 38.7863 11.2168 50 25.0016 50C38.7863 50 50.0031 38.7863 50.0031 25C50.0031 11.2137 38.7863 0 25.0016 0ZM25.0016 48.3348C12.1351 48.3348 1.66833 37.8664 1.66833 25C1.66833 12.1336 12.1351 1.66521 25.0016 1.66521C37.868 1.66521 48.3348 12.1336 48.3348 25C48.3348 37.8664 37.868 48.3348 25.0016 48.3348Z" fill="#1B1B1B"/>
<path d="M30.4588 10.9671H26.2989C21.0008 10.9141 20.3241 14.193 20.3241 17.7418V20.3222H17.9853C17.8796 20.3081 17.772 20.3185 17.671 20.3527C17.57 20.3869 17.4782 20.4439 17.4028 20.5193C17.3274 20.5947 17.2704 20.6865 17.2362 20.7875C17.202 20.8886 17.1916 20.9961 17.2057 21.1018V25.7794C17.1916 25.8851 17.202 25.9926 17.2362 26.0936C17.2704 26.1947 17.3274 26.2864 17.4028 26.3618C17.4782 26.4373 17.57 26.4943 17.671 26.5285C17.772 26.5626 17.8796 26.5731 17.9853 26.559H20.3241V38.2529C20.3114 38.3587 20.323 38.466 20.358 38.5667C20.393 38.6674 20.4505 38.7588 20.5261 38.8339C20.6017 38.9091 20.6934 38.966 20.7943 39.0004C20.8952 39.0348 21.0026 39.0458 21.1083 39.0325H25.8717C26.3316 39.0855 26.7043 38.7128 26.5577 38.2529L26.5608 26.559H30.4588C30.5645 26.5731 30.672 26.5626 30.773 26.5285C30.8741 26.4943 30.9659 26.4373 31.0413 26.3618C31.1167 26.2864 31.1737 26.1947 31.2079 26.0936C31.2421 25.9926 31.2525 25.8851 31.2384 25.7794V21.1018C31.2525 20.9961 31.2421 20.8886 31.2079 20.7875C31.1737 20.6865 31.1167 20.5947 31.0413 20.5193C30.9659 20.4439 30.8741 20.3869 30.773 20.3527C30.672 20.3185 30.5645 20.3081 30.4588 20.3222H26.5561L26.5608 17.9834C26.7121 16.9871 26.7121 17.1493 27.6367 17.2038H30.426C30.6428 17.1555 30.8735 17.182 31.0357 17.0245C31.1978 16.8671 31.2914 16.6519 31.2368 16.4242V11.7467C31.2512 11.6411 31.241 11.5335 31.207 11.4325C31.173 11.3315 31.1162 11.2396 31.0409 11.1642C30.9656 11.0887 30.8739 11.0317 30.7729 10.9975C30.6719 10.9633 30.5644 10.9529 30.4588 10.9671ZM29.6246 15.5573L27.6694 15.4825C25.248 15.4825 25.0453 16.7969 25.0453 18.1425L25.039 21.0987C25.0388 21.2082 25.0602 21.3166 25.102 21.4178C25.1437 21.519 25.205 21.611 25.2824 21.6884C25.3597 21.7659 25.4516 21.8274 25.5527 21.8693C25.6538 21.9113 25.7622 21.9329 25.8717 21.9329H29.6792V24.9452H25.8748C25.6538 24.9452 25.4419 25.0329 25.2855 25.189C25.1291 25.3451 25.041 25.5568 25.0406 25.7778L25.039 37.4733H21.8833V25.7794C21.8833 25.3194 21.5699 24.9468 21.1083 24.9468H18.7649V21.9344H21.1083C21.2178 21.9349 21.3263 21.9137 21.4274 21.8719C21.5286 21.8302 21.6205 21.7687 21.6977 21.6912C21.8536 21.5337 21.8817 21.3216 21.8817 21.1002V17.7402C21.8817 14.2445 22.588 12.5793 26.2973 12.5793H29.6231L29.6246 15.5573Z" fill="#1B1B1B"/>
</svg>
