<svg width="46" height="45" viewBox="0 0 46 45" fill="none" xmlns="http://www.w3.org/2000/svg">
<circle cx="22.8552" cy="22.5" r="21.75" stroke="#E4C983" stroke-width="1.5"/>
<path d="M15.3552 17.75C15.3552 17.5511 15.4342 17.3603 15.5749 17.2197C15.7155 17.079 15.9063 17 16.1052 17H31.1052C31.3041 17 31.4949 17.079 31.6356 17.2197C31.7762 17.3603 31.8552 17.5511 31.8552 17.75C31.8552 17.9489 31.7762 18.1397 31.6356 18.2803C31.4949 18.421 31.3041 18.5 31.1052 18.5H16.1052C15.9063 18.5 15.7155 18.421 15.5749 18.2803C15.4342 18.1397 15.3552 17.9489 15.3552 17.75ZM17.8552 22.75C17.8552 22.5511 17.9342 22.3603 18.0749 22.2197C18.2155 22.079 18.4063 22 18.6052 22H28.6052C28.8041 22 28.9949 22.079 29.1356 22.2197C29.2762 22.3603 29.3552 22.5511 29.3552 22.75C29.3552 22.9489 29.2762 23.1397 29.1356 23.2803C28.9949 23.421 28.8041 23.5 28.6052 23.5H18.6052C18.4063 23.5 18.2155 23.421 18.0749 23.2803C17.9342 23.1397 17.8552 22.9489 17.8552 22.75ZM20.8552 27.75C20.8552 27.5511 20.9342 27.3603 21.0749 27.2197C21.2155 27.079 21.4063 27 21.6052 27H25.6052C25.8041 27 25.9949 27.079 26.1356 27.2197C26.2762 27.3603 26.3552 27.5511 26.3552 27.75C26.3552 27.9489 26.2762 28.1397 26.1356 28.2803C25.9949 28.421 25.8041 28.5 25.6052 28.5H21.6052C21.4063 28.5 21.2155 28.421 21.0749 28.2803C20.9342 28.1397 20.8552 27.9489 20.8552 27.75Z" fill="#E4C983"/>
</svg>
