<svg width="50" height="50" viewBox="0 0 50 50" fill="none" xmlns="http://www.w3.org/2000/svg">
<circle cx="25" cy="25" r="24.25" stroke="#1B1B1B" stroke-width="1.5"/>
<path d="M29.2353 13H20.7647C16.4764 13 13 16.4764 13 20.7647V29.2353C13 33.5236 16.4764 37 20.7647 37H29.2353C33.5236 37 37 33.5236 37 29.2353V20.7647C37 16.4764 33.5236 13 29.2353 13Z" stroke="#1B1B1B" stroke-width="1.5" stroke-linecap="round" stroke-linejoin="round"/>
<path d="M25.0002 30.0908C27.8117 30.0908 30.091 27.8116 30.091 25C30.091 22.1884 27.8117 19.9092 25.0002 19.9092C22.1886 19.9092 19.9093 22.1884 19.9093 25C19.9093 27.8116 22.1886 30.0908 25.0002 30.0908Z" stroke="#1B1B1B" stroke-width="1.5" stroke-linecap="round" stroke-linejoin="round"/>
<path d="M31.9092 19.545C32.7123 19.545 33.3633 18.8939 33.3633 18.0908C33.3633 17.2877 32.7123 16.6367 31.9092 16.6367C31.1061 16.6367 30.4551 17.2877 30.4551 18.0908C30.4551 18.8939 31.1061 19.545 31.9092 19.545Z" fill="#1B1B1B"/>
</svg>
