<svg width="50" height="50" viewBox="0 0 50 50" fill="none" xmlns="http://www.w3.org/2000/svg">
<circle cx="25" cy="25" r="24.25" stroke="#1B1B1B" stroke-width="1.5"/>
<path d="M35.0139 28.7594L29.4702 26.2751C29.219 26.1675 28.945 26.1242 28.6729 26.1492C28.4007 26.1742 28.1392 26.2667 27.9118 26.4183C27.8888 26.4331 27.8668 26.4496 27.8461 26.4675L24.9487 28.9319C24.9186 28.9483 24.8852 28.9575 24.8509 28.9587C24.8167 28.9599 24.7827 28.9532 24.7515 28.939C22.8892 28.0401 20.9599 26.1225 20.0575 24.286C20.0425 24.2553 20.0347 24.2216 20.0347 24.1874C20.0347 24.1532 20.0425 24.1195 20.0575 24.0888L22.5301 21.1551C22.5478 21.1334 22.5643 21.1106 22.5794 21.087C22.7289 20.8588 22.8192 20.5969 22.8421 20.325C22.865 20.0531 22.8199 19.7798 22.7108 19.5297L20.2441 13.9955C20.104 13.6688 19.8617 13.3963 19.5537 13.219C19.2456 13.0417 18.8883 12.9691 18.5355 13.0121C17.0019 13.2137 15.5943 13.9668 14.5756 15.1306C13.5569 16.2944 12.9968 17.7894 13 19.3361C13 28.5247 20.4753 36 29.6638 36C31.2105 36.003 32.7053 35.4428 33.8691 34.4241C35.0329 33.4054 35.786 31.9979 35.9879 30.4645C36.0308 30.1133 35.9591 29.7577 35.7837 29.4504C35.6082 29.1432 35.3382 28.9009 35.0139 28.7594ZM29.6638 34.5918C21.2521 34.5918 14.4082 27.7479 14.4082 19.3361C14.4043 18.132 14.8389 16.9677 15.6308 16.0606C16.4228 15.1536 17.5179 14.5659 18.7115 14.4074H18.7385C18.7858 14.4082 18.8317 14.4234 18.8702 14.4508C18.9087 14.4783 18.9381 14.5167 18.9544 14.5611L21.4305 20.0895C21.4446 20.1202 21.4519 20.1537 21.4519 20.1875C21.4519 20.2213 21.4446 20.2548 21.4305 20.2855L18.9532 23.2263C18.9348 23.2474 18.918 23.2697 18.9028 23.2932C18.7477 23.5298 18.6565 23.8025 18.6378 24.0848C18.619 24.3671 18.6735 24.6494 18.796 24.9044C19.8369 27.0355 21.9844 29.1666 24.139 30.2075C24.3955 30.3293 24.6792 30.3825 24.9624 30.3619C25.2456 30.3413 25.5186 30.2477 25.7549 30.0902C25.7772 30.0749 25.7995 30.0585 25.8206 30.0409L28.7168 27.5765C28.7454 27.5611 28.777 27.5521 28.8094 27.5501C28.8418 27.5481 28.8743 27.5531 28.9046 27.5648L34.4494 30.0491C34.4947 30.0684 34.5328 30.1014 34.5583 30.1436C34.5837 30.1857 34.5953 30.2347 34.5914 30.2838C34.4337 31.478 33.8466 32.5739 32.9397 33.3667C32.0329 34.1595 30.8684 34.595 29.6638 34.5918Z" fill="#1B1B1B"/>
</svg>
