<svg width="22" height="22" viewBox="0 0 22 22" fill="none" xmlns="http://www.w3.org/2000/svg">
<path d="M8.5 14.5842V7.41616C8.50015 7.32648 8.52442 7.23848 8.57026 7.1614C8.61611 7.08432 8.68184 7.02099 8.76057 6.97804C8.83931 6.9351 8.92814 6.91412 9.01777 6.91731C9.1074 6.9205 9.19452 6.94773 9.27 6.99616L14.846 10.5792C14.9166 10.6244 14.9747 10.6867 15.0149 10.7602C15.0552 10.8338 15.0763 10.9163 15.0763 11.0002C15.0763 11.084 15.0552 11.1665 15.0149 11.2401C14.9747 11.3137 14.9166 11.3759 14.846 11.4212L9.27 15.0052C9.19452 15.0536 9.1074 15.0808 9.01777 15.084C8.92814 15.0872 8.83931 15.0662 8.76057 15.0233C8.68184 14.9803 8.61611 14.917 8.57026 14.8399C8.52442 14.7628 8.50015 14.6748 8.5 14.5852V14.5842Z" fill="#1B1B1B"/>
<path d="M0 11C0 4.925 4.925 0 11 0C17.075 0 22 4.925 22 11C22 17.075 17.075 22 11 22C4.925 22 0 17.075 0 11ZM11 1.5C8.48044 1.5 6.06408 2.50089 4.28249 4.28249C2.50089 6.06408 1.5 8.48044 1.5 11C1.5 13.5196 2.50089 15.9359 4.28249 17.7175C6.06408 19.4991 8.48044 20.5 11 20.5C13.5196 20.5 15.9359 19.4991 17.7175 17.7175C19.4991 15.9359 20.5 13.5196 20.5 11C20.5 8.48044 19.4991 6.06408 17.7175 4.28249C15.9359 2.50089 13.5196 1.5 11 1.5Z" fill="#1B1B1B"/>
</svg>
